<svg width="256" height="25" viewBox="0 0 256 25" fill="none" xmlns="http://www.w3.org/2000/svg">
<path fill-rule="evenodd" clip-rule="evenodd" d="M2.97567 15.7545C3.12824 15.9071 3.36021 15.9474 3.55528 15.8552L9.76532 12.9198C9.94082 12.8369 10.0542 12.6616 10.0578 12.4675L10.0954 10.4665C10.1039 10.016 10.6489 9.7962 10.9675 10.1148L11.3563 10.5036C11.6749 10.8222 12.22 10.6024 12.2284 10.152L12.2299 10.0727C12.2325 9.93388 12.1785 9.79998 12.0804 9.70181L10.2997 7.9212C10.2016 7.82303 10.1476 7.68914 10.1502 7.55033L10.205 4.6345C10.2075 4.50234 10.2611 4.37629 10.3545 4.28283L11.9612 2.67617C12.1607 2.47665 12.4842 2.47665 12.6837 2.67617L12.6959 2.68838C12.8954 2.88791 12.8954 3.2114 12.6959 3.41092L11.4057 4.7011C11.3125 4.79436 11.2589 4.92006 11.2562 5.05192L11.2146 7.08807C11.2117 7.22716 11.2657 7.3614 11.3641 7.45978L11.4112 7.50686C11.7294 7.82507 12.2738 7.60624 12.2832 7.15632L12.2924 6.72168C12.2951 6.58992 12.3487 6.46433 12.4419 6.37114L14.049 4.76402C14.2485 4.56449 14.572 4.56449 14.7716 4.76402L14.7838 4.77627C14.9833 4.97579 14.9833 5.29928 14.7838 5.49881L13.4938 6.78879C13.4005 6.88216 13.3469 7.00806 13.3443 7.14008L13.246 12.1716C13.2433 12.3105 13.2973 12.4446 13.3955 12.5428L13.4321 12.5794C13.7507 12.898 14.2958 12.6782 14.3042 12.2278L14.3417 10.2304C14.3442 10.0982 14.3978 9.97219 14.4913 9.87873L16.1105 8.25954C16.31 8.06001 16.6335 8.06002 16.833 8.25954L16.8453 8.27177C17.0448 8.47129 17.0448 8.79478 16.8453 8.99431L15.5429 10.2967C15.4494 10.3901 15.3958 10.5162 15.3933 10.6483L15.3813 11.2869C15.3759 11.5765 15.6121 11.8127 15.9018 11.8073L16.5567 11.795C16.6888 11.7925 16.8149 11.7389 16.9083 11.6454L18.2023 10.3515C18.4018 10.1519 18.7253 10.1519 18.9249 10.3515L18.9371 10.3637C19.1366 10.5632 19.1366 10.8867 18.9371 11.0862L17.3268 12.6966C17.233 12.7903 17.1065 12.844 16.974 12.8461L15.8447 12.8648C15.5696 12.8694 15.3475 13.091 15.3423 13.3661L15.3257 14.2517C15.3231 14.3905 15.377 14.5243 15.4752 14.6225L17.3533 16.5006C17.5528 16.7001 17.5528 17.0236 17.3533 17.2232L16.3389 18.2376C16.2144 18.3621 16.0345 18.4137 15.8629 18.3742L11.3668 17.3382C11.11 17.279 10.8503 17.4248 10.7672 17.6749L9.40189 21.7819C9.34089 21.9654 9.38871 22.1676 9.52544 22.3043L12.0715 24.8504C12.271 25.0499 12.5945 25.0499 12.794 24.8504L24.8504 12.794C25.0499 12.5945 25.0499 12.271 24.8504 12.0715L12.9285 0.149642C12.729 -0.0498808 12.4055 -0.0498807 12.206 0.149642L0.149642 12.206C-0.0498806 12.4055 -0.0498808 12.729 0.149642 12.9285L2.97567 15.7545ZM12.1016 14.5047C12.1068 14.23 12.4391 14.096 12.6334 14.2903C12.8276 14.4845 12.6936 14.8168 12.4189 14.822C12.2423 14.8253 12.0983 14.6813 12.1016 14.5047ZM21.7925 25C20.0318 25 18.3351 24.6329 16.9277 23.7165L19.8375 20.8068C20.3146 20.9907 20.8449 21.1031 21.4365 21.1031C23.4753 21.1031 24.8021 19.8041 24.8021 17.7938V15.8421L27.8502 12.794C28.0498 12.5945 28.0498 12.271 27.8502 12.0715L24.8021 9.02338V4.5C24.8021 4.22386 25.026 4 25.3021 4H28.8975C29.1736 4 29.3975 4.22386 29.3975 4.5V17.8557C29.3975 22.7423 26.226 25 21.7925 25ZM52.4998 24.6289C52.7759 24.6289 52.9998 24.405 52.9998 24.1289V4.5C52.9998 4.22386 52.7759 4 52.4998 4H48.9044C48.6283 4 48.4044 4.22386 48.4044 4.5V15.4924C48.4044 15.9694 47.8 16.1755 47.5086 15.7978L38.5548 4.19454C38.4601 4.07186 38.3139 4 38.1589 4H34.1798C33.9037 4 33.6798 4.22386 33.6798 4.5V24.1289C33.6798 24.405 33.9037 24.6289 34.1798 24.6289H37.7752C38.0513 24.6289 38.2752 24.405 38.2752 24.1289V12.6519C38.2752 12.1738 38.8819 11.9684 39.1723 12.3481L48.4161 24.4326C48.5107 24.5563 48.6575 24.6289 48.8133 24.6289H52.4998Z" fill="#00F0FF"/>
<path d="M63 23.2174C63.9582 24.4565 65.1559 25 66.7239 25C69.1411 25 71.1228 23.5652 71.1228 20.5435V10.2391H69.8598V20.5435C69.8598 22.5 68.6402 23.8696 66.6585 23.8696C65.2866 23.8696 64.4155 23.1304 63.7622 22.2826L63 23.2174Z" fill="#00F0FF"/>
<path d="M75.7217 19.1739C75.7217 22.7391 77.6599 25 81.3838 25C85.1294 25 87.0458 22.7609 87.0458 19.1739V10.2391H85.7827V19.1522C85.7827 22.087 84.2583 23.8696 81.3838 23.8696C78.531 23.8696 76.9848 22.087 76.9848 19.1522V10.2391H75.7217V19.1739Z" fill="#00F0FF"/>
<path d="M90.835 22.6957C91.9456 24.0435 93.7531 25 96.1486 25C100.068 25 101.31 22.7609 101.31 20.8913C101.31 17.9565 98.7401 17.2174 96.3882 16.5435C94.4064 16.0217 92.5989 15.5217 92.5989 13.8043C92.5989 12.2391 94.058 11.1304 95.9962 11.1304C97.6294 11.1304 99.1103 11.6957 100.156 12.9565L100.983 12.0435C99.8507 10.7609 98.2392 10 96.0615 10C93.4265 10 91.2923 11.5 91.2923 13.8696C91.2923 16.5435 93.7314 17.1957 96.0179 17.8261C98.065 18.3696 100.003 18.9348 100.003 20.9783C100.003 22.2174 99.1538 23.8696 96.1704 23.8696C94.1016 23.8696 92.5772 22.8478 91.6408 21.7609L90.835 22.6957Z" fill="#00F0FF"/>
<path d="M110.186 24.7391V11.3696H114.933V10.2391H104.175V11.3696H108.923V24.7391H110.186Z" fill="#00F0FF"/>
<path d="M119.744 24.7391V10.2391H118.502V24.7391H119.744Z" fill="#00F0FF"/>
<path d="M135.948 24.7391V10.2391H134.707V22.587L125.604 10.2391H124.341V24.7391H125.582V12.2174L134.729 24.7391H135.948Z" fill="#00F0FF"/>
<path d="M158.791 24.7391V10.2391H157.549V22.587L148.446 10.2391H147.183V24.7391H148.425V12.2174L157.571 24.7391H158.791Z" fill="#00F0FF"/>
<path d="M164.641 24.7391V10.2391H163.4V24.7391H164.641Z" fill="#00F0FF"/>
<path d="M176.011 25C178.363 25 180.062 24 181.347 22.413L180.302 21.7609C179.387 23.0217 177.797 23.8696 176.011 23.8696C172.636 23.8696 170.001 21.2391 170.001 17.5C170.001 13.7174 172.636 11.1304 176.011 11.1304C177.797 11.1304 179.387 11.9783 180.302 13.2391L181.347 12.5652C180.106 11.0217 178.363 10 176.011 10C171.939 10 168.694 13.0435 168.694 17.5C168.694 21.9565 171.939 25 176.011 25Z" fill="#00F0FF"/>
<path d="M196.576 24.7391V10.2391H195.313V16.7174H186.101V10.2391H184.86V24.7391H186.101V17.8478H195.313V24.7391H196.576Z" fill="#00F0FF"/>
<path d="M200.618 17.5C200.618 21.7391 203.405 25 207.673 25C211.92 25 214.729 21.7391 214.729 17.5C214.729 13.2609 211.92 10 207.673 10C203.405 10 200.618 13.2609 200.618 17.5ZM213.422 17.5C213.422 21.1522 211.158 23.8696 207.673 23.8696C204.145 23.8696 201.924 21.1522 201.924 17.5C201.924 13.8043 204.145 11.1304 207.673 11.1304C211.158 11.1304 213.422 13.8043 213.422 17.5Z" fill="#00F0FF"/>
<path d="M227.058 24.7391V23.6087H220.024V10.2391H218.782V24.7391H227.058Z" fill="#00F0FF"/>
<path d="M242.701 24.7391L236.756 10.2391H235.21L229.265 24.7391H230.659L232.118 21.1739H239.849L241.308 24.7391H242.701ZM239.457 20.0435H232.51L235.972 11.4565L239.457 20.0435Z" fill="#00F0FF"/>
<path d="M244.668 22.6957C245.779 24.0435 247.586 25 249.982 25C253.902 25 255.143 22.7609 255.143 20.8913C255.143 17.9565 252.573 17.2174 250.221 16.5435C248.24 16.0217 246.432 15.5217 246.432 13.8043C246.432 12.2391 247.891 11.1304 249.829 11.1304C251.463 11.1304 252.943 11.6957 253.989 12.9565L254.816 12.0435C253.684 10.7609 252.072 10 249.895 10C247.26 10 245.125 11.5 245.125 13.8696C245.125 16.5435 247.564 17.1957 249.851 17.8261C251.898 18.3696 253.836 18.9348 253.836 20.9783C253.836 22.2174 252.987 23.8696 250.003 23.8696C247.935 23.8696 246.41 22.8478 245.474 21.7609L244.668 22.6957Z" fill="#00F0FF"/>
</svg>
